<svg width="70" height="70" viewBox="0 0 70 70" fill="none" xmlns="http://www.w3.org/2000/svg">
<rect width="70" height="70" rx="12" fill="url(#paint0_radial_2292_1143)"/>
<path d="M26 20C26 17.2386 28.2386 15 31 15C33.7614 15 36 17.2386 36 20V23H38C40.7956 23 42.1935 23 43.2961 23.4567C44.7663 24.0657 45.9343 25.2337 46.5433 26.7039C47 27.8065 47 29.2044 47 32H50C52.7614 32 55 34.2386 55 37C55 39.7614 52.7614 42 50 42H47V45.4C47 48.7603 47 50.4405 46.346 51.7239C45.7708 52.8529 44.8529 53.7708 43.7239 54.346C42.4405 55 40.7603 55 37.4 55H36V51.5C36 49.0147 33.9853 47 31.5 47C29.0147 47 27 49.0147 27 51.5V55H24.6C21.2397 55 19.5595 55 18.2761 54.346C17.1471 53.7708 16.2292 52.8529 15.654 51.7239C15 50.4405 15 48.7603 15 45.4V42H18C20.7614 42 23 39.7614 23 37C23 34.2386 20.7614 32 18 32H15C15 29.2044 15 27.8065 15.4567 26.7039C16.0657 25.2337 17.2337 24.0657 18.7039 23.4567C19.8065 23 21.2044 23 24 23H26V20Z" stroke="white" stroke-width="5" stroke-linecap="round" stroke-linejoin="round"/>
<defs>
<radialGradient id="paint0_radial_2292_1143" cx="0" cy="0" r="1" gradientUnits="userSpaceOnUse" gradientTransform="translate(35 35) rotate(90) scale(49.7)">
<stop stop-color="#8A9A5B"/>
<stop offset="1" stop-color="white"/>
</radialGradient>
</defs>
</svg>
