<svg width="70" height="70" viewBox="0 0 70 70" fill="none" xmlns="http://www.w3.org/2000/svg">
<rect width="70" height="70" rx="12" fill="url(#paint0_radial_2292_1154)"/>
<path d="M29.7901 49.7422L30.959 52.3711C31.3065 53.1537 31.8735 53.8186 32.5914 54.2852C33.3093 54.7518 34.1472 55.0001 35.0034 55C35.8596 55.0001 36.6975 54.7518 37.4154 54.2852C38.1333 53.8186 38.7004 53.1537 39.0479 52.3711L40.2167 49.7422C40.6328 48.8094 41.3328 48.0317 42.2168 47.52C43.1063 47.0069 44.1354 46.7883 45.1568 46.8956L48.0168 47.2C48.8681 47.2901 49.7273 47.1312 50.4901 46.7427C51.253 46.3541 51.8867 45.7526 52.3145 45.0111C52.7429 44.27 52.947 43.4206 52.902 42.5658C52.857 41.711 52.5649 40.8876 52.0612 40.1956L50.3679 37.8689C49.7649 37.0343 49.4427 36.0296 49.4479 35C49.4477 33.9732 49.7729 32.9727 50.3768 32.1422L52.0701 29.8156C52.5738 29.1235 52.8659 28.3001 52.9109 27.4453C52.9558 26.5906 52.7518 25.7411 52.3234 25C51.8956 24.2585 51.2619 23.657 50.499 23.2685C49.7362 22.8799 48.877 22.7211 48.0256 22.8111L45.1656 23.1156C44.1443 23.2228 43.1152 23.0042 42.2256 22.4911C41.3399 21.9765 40.6398 21.1947 40.2256 20.2578L39.0479 17.6289C38.7004 16.8463 38.1333 16.1814 37.4154 15.7148C36.6975 15.2482 35.8596 14.9999 35.0034 15C34.1472 14.9999 33.3093 15.2482 32.5914 15.7148C31.8735 16.1814 31.3065 16.8463 30.959 17.6289L29.7901 20.2578C29.3759 21.1947 28.6758 21.9765 27.7901 22.4911C26.9005 23.0042 25.8714 23.2228 24.8501 23.1156L21.9812 22.8111C21.1299 22.7211 20.2707 22.8799 19.5078 23.2685C18.745 23.657 18.1112 24.2585 17.6834 25C17.2551 25.7411 17.051 26.5906 17.096 27.4453C17.1409 28.3001 17.433 29.1235 17.9368 29.8156L19.6301 32.1422C20.234 32.9727 20.5592 33.9732 20.559 35C20.5592 36.0268 20.234 37.0273 19.6301 37.8578L17.9368 40.1844C17.433 40.8765 17.1409 41.6999 17.096 42.5547C17.051 43.4094 17.2551 44.2589 17.6834 45C18.1116 45.7411 18.7455 46.3423 19.5082 46.7308C20.271 47.1193 21.1299 47.2784 21.9812 47.1889L24.8412 46.8844C25.8625 46.7772 26.8916 46.9958 27.7812 47.5089C28.6703 48.022 29.3736 48.804 29.7901 49.7422Z" stroke="white" stroke-width="5" stroke-linecap="round" stroke-linejoin="round"/>
<path d="M34.9998 41C38.3136 41 40.9998 38.3137 40.9998 35C40.9998 31.6863 38.3136 29 34.9998 29C31.6861 29 28.9998 31.6863 28.9998 35C28.9998 38.3137 31.6861 41 34.9998 41Z" stroke="white" stroke-width="5" stroke-linecap="round" stroke-linejoin="round"/>
<defs>
<radialGradient id="paint0_radial_2292_1154" cx="0" cy="0" r="1" gradientUnits="userSpaceOnUse" gradientTransform="translate(35 35) rotate(90) scale(49.7)">
<stop stop-color="#8A9A5B"/>
<stop offset="1" stop-color="white"/>
</radialGradient>
</defs>
</svg>
