<svg width="70" height="70" viewBox="0 0 70 70" fill="none" xmlns="http://www.w3.org/2000/svg">
<rect width="70" height="70" rx="12" fill="url(#paint0_radial_2292_1156)"/>
<path d="M34.7222 15.7811C36.699 14.4633 39.2672 14.4359 41.2716 15.7115L49.582 20.9999H52.9996C54.1042 20.9999 54.9996 21.8953 54.9996 22.9999V40.9998C54.9996 42.1044 54.1042 42.9998 52.9996 42.9998H49.9602C50.0792 44.8944 49.1866 46.8204 47.391 47.8978L37.2042 54.01C35.9182 54.7814 34.3218 54.7634 33.0628 53.9948C31.6622 55.2334 29.5062 55.3698 27.9421 54.1408L17.6606 46.0624C16.1277 44.8582 15.7401 42.8006 16.5316 41.1694C15.565 40.4114 15 39.2508 15 38.0218V23C15 21.8954 15.8954 21 17 21H26.8939L34.7222 15.7811ZM19.3453 38.2904L20.7293 37.0794C23.1898 34.9264 26.9208 35.1396 29.12 37.5588L34.5244 43.5036C36.2634 45.4166 36.5806 48.227 35.3158 50.478L45.333 44.4678C45.8958 44.1302 46.0994 43.4552 45.8896 42.8866L37.0354 30.491C36.538 29.7947 35.6528 29.492 34.8332 29.7378L29.8627 31.229C27.7485 31.8632 25.4568 31.2854 23.896 29.7247L23.3104 29.1392C22.1744 28.0031 21.8806 26.3864 22.3587 25H19V38.0218L19.3453 38.2904ZM39.1242 19.0861C38.456 18.6609 37.6 18.67 36.941 19.1093L26.1389 26.3107L26.7244 26.8963C27.2447 27.4165 28.0086 27.6091 28.7133 27.3977L33.6838 25.9065C36.1426 25.1689 38.7984 26.0772 40.2904 28.1661L48.0288 38.9998H50.9996V24.9999H49.582C48.8212 24.9999 48.0762 24.783 47.4344 24.3745L39.1242 19.0861ZM23.3634 40.0896L20.1319 42.9172L30.4134 50.9956L31.8212 48.5318C32.2512 47.7794 32.1476 46.8356 31.5646 46.1942L26.1603 40.2494C25.4272 39.443 24.1835 39.372 23.3634 40.0896Z" fill="white"/>
<defs>
<radialGradient id="paint0_radial_2292_1156" cx="0" cy="0" r="1" gradientUnits="userSpaceOnUse" gradientTransform="translate(35 35) rotate(90) scale(49.7)">
<stop stop-color="#8A9A5B"/>
<stop offset="1" stop-color="white"/>
</radialGradient>
</defs>
</svg>
