<svg width="48" height="48" viewBox="0 0 48 48" fill="none" xmlns="http://www.w3.org/2000/svg">
<path d="M22.604 43.2295C23.0468 43.4878 23.2682 43.617 23.5806 43.684C23.8231 43.736 24.1769 43.736 24.4194 43.684C24.7318 43.617 24.9532 43.4878 25.396 43.2295C29.2921 40.9565 40 33.8166 40 23.9997V14.4349C40 12.8359 40 12.0364 39.7385 11.3491C39.5075 10.742 39.132 10.2003 38.6447 9.7708C38.093 9.28462 37.3444 9.00389 35.8472 8.44244L25.1236 4.42109C24.7078 4.26517 24.4999 4.18721 24.286 4.1563C24.0963 4.12889 23.9037 4.12889 23.714 4.1563C23.5001 4.18721 23.2922 4.26517 22.8764 4.42109L12.1528 8.44244C10.6556 9.00389 9.90699 9.28462 9.35532 9.7708C8.86797 10.2003 8.49255 10.742 8.26152 11.3491C8 12.0364 8 12.8359 8 14.4349V23.9997C8 33.8166 18.7079 40.9565 22.604 43.2295Z" stroke="#E2C473" stroke-width="2" stroke-linecap="round" stroke-linejoin="round"/>
</svg>
