<svg width="48" height="48" viewBox="0 0 48 48" fill="none" xmlns="http://www.w3.org/2000/svg">
<path d="M24 44C35.0457 44 44 35.0457 44 24C44 12.9543 35.0457 4 24 4C12.9543 4 4 12.9543 4 24C4 35.0457 12.9543 44 24 44Z" stroke="#E2C473" stroke-width="2" stroke-linecap="round" stroke-linejoin="round"/>
<path d="M29.4442 16.5319C30.4213 16.2062 30.9099 16.0434 31.2347 16.1592C31.5175 16.2601 31.7399 16.4825 31.8408 16.7653C31.9566 17.0901 31.7938 17.5787 31.4681 18.5558L28.493 27.4811C28.4002 27.7593 28.3538 27.8985 28.2748 28.014C28.2048 28.1164 28.1164 28.2048 28.014 28.2748C27.8985 28.3538 27.7593 28.4002 27.4811 28.493L18.5558 31.4681C17.5787 31.7938 17.0901 31.9566 16.7653 31.8408C16.4825 31.7399 16.2601 31.5175 16.1592 31.2347C16.0434 30.9099 16.2062 30.4213 16.5319 29.4442L19.507 20.5189C19.5998 20.2407 19.6462 20.1015 19.7252 19.986C19.7952 19.8836 19.8836 19.7952 19.986 19.7252C20.1015 19.6462 20.2407 19.5998 20.5189 19.507L29.4442 16.5319Z" stroke="#E2C473" stroke-width="2" stroke-linecap="round" stroke-linejoin="round"/>
</svg>
