<svg width="48" height="48" viewBox="0 0 48 48" fill="none" xmlns="http://www.w3.org/2000/svg">
<path d="M5 42.9996L16.0985 38.731C16.8084 38.4579 17.1634 38.3214 17.4954 38.1432C17.7904 37.9848 18.0716 37.8021 18.3361 37.5969C18.6338 37.3658 18.9027 37.0969 19.4406 36.5591L42 13.9996C44.2092 11.7905 44.2092 8.20877 42 5.99963C39.7909 3.79049 36.2092 3.79049 34.0001 5.99962L11.4406 28.5591C10.9028 29.0969 10.6338 29.3658 10.4028 29.6635C10.1975 29.928 10.0148 30.2092 9.85647 30.5042C9.67821 30.8363 9.5417 31.1912 9.26866 31.9011L5 42.9996ZM5 42.9996L9.11624 32.2975C9.41079 31.5317 9.55807 31.1488 9.81068 30.9734C10.0314 30.8201 10.3046 30.7621 10.5686 30.8126C10.8707 30.8702 11.1608 31.1603 11.741 31.7405L16.2591 36.2587C16.8393 36.8389 17.1294 37.129 17.1871 37.4311C17.2375 37.6951 17.1796 37.9682 17.0263 38.189C16.8509 38.4416 16.468 38.5889 15.7021 38.8834L5 42.9996Z" stroke="#E2C473" stroke-width="2" stroke-linecap="round" stroke-linejoin="round"/>
</svg>
