<svg width="100" height="100" viewBox="0 0 100 100" fill="none" xmlns="http://www.w3.org/2000/svg">
<rect width="100" height="100" rx="12" fill="url(#paint0_radial_2292_1160)"/>
<path d="M50.0006 71.3346H31.8673C28.8804 71.3346 27.3869 71.3346 26.246 70.7533C25.2425 70.242 24.4266 69.4261 23.9153 68.4226C23.334 67.2817 23.334 65.7883 23.334 62.8013V37.2013C23.334 34.2144 23.334 32.7209 23.9153 31.58C24.4266 30.5765 25.2425 29.7606 26.246 29.2493C27.3869 28.668 28.8804 28.668 31.8673 28.668H32.934C38.9079 28.668 41.8948 28.668 44.1765 29.8306C46.1836 30.8532 47.8154 32.485 48.8381 34.4921C50.0006 36.7738 50.0006 39.7607 50.0006 45.7346M50.0006 71.3346V45.7346M50.0006 71.3346H68.134C71.1209 71.3346 72.6144 71.3346 73.7553 70.7533C74.7588 70.242 75.5747 69.4261 76.086 68.4226C76.6673 67.2817 76.6673 65.7883 76.6673 62.8013V37.2013C76.6673 34.2144 76.6673 32.7209 76.086 31.58C75.5747 30.5765 74.7588 29.7606 73.7553 29.2493C72.6144 28.668 71.1209 28.668 68.134 28.668H67.0673C61.0934 28.668 58.1065 28.668 55.8248 29.8306C53.8177 30.8532 52.1859 32.485 51.1632 34.4921C50.0006 36.7738 50.0006 39.7607 50.0006 45.7346" stroke="white" stroke-width="5" stroke-linecap="round" stroke-linejoin="round"/>
<defs>
<radialGradient id="paint0_radial_2292_1160" cx="0" cy="0" r="1" gradientUnits="userSpaceOnUse" gradientTransform="translate(50 50) rotate(90) scale(71)">
<stop stop-color="#A066AA"/>
<stop offset="1" stop-color="white"/>
</radialGradient>
</defs>
</svg>
