<svg width="48" height="48" viewBox="0 0 48 48" fill="none" xmlns="http://www.w3.org/2000/svg">
<path d="M42 32V14.4C42 12.1598 42 11.0397 41.564 10.184C41.1805 9.43139 40.5686 8.81947 39.816 8.43597C38.9603 8 37.8402 8 35.6 8H12.4C10.1598 8 9.03969 8 8.18404 8.43597C7.43139 8.81947 6.81947 9.43139 6.43597 10.184C6 11.0397 6 12.1598 6 14.4V32M9.33333 40H38.6667C39.9066 40 40.5266 40 41.0353 39.8637C42.4156 39.4938 43.4938 38.4156 43.8637 37.0353C44 36.5266 44 35.9066 44 34.6667C44 34.0467 44 33.7367 43.9319 33.4824C43.7469 32.7922 43.2078 32.2531 42.5176 32.0681C42.2633 32 41.9533 32 41.3333 32H6.66667C6.04669 32 5.73669 32 5.48236 32.0681C4.79218 32.2531 4.25308 32.7922 4.06815 33.4824C4 33.7367 4 34.0467 4 34.6667C4 35.9066 4 36.5266 4.1363 37.0353C4.50617 38.4156 5.58436 39.4938 6.96472 39.8637C7.47339 40 8.09337 40 9.33333 40Z" stroke="#E2C473" stroke-width="2" stroke-linecap="round" stroke-linejoin="round"/>
</svg>
