<svg width="100" height="100" viewBox="0 0 100 100" fill="none" xmlns="http://www.w3.org/2000/svg">
<rect width="100" height="100" rx="12" fill="url(#paint0_radial_2292_1162)"/>
<path d="M41.6693 52.9195L30.5359 39.0028C29.8429 38.1364 29.4964 37.7033 29.2499 37.2209C29.0313 36.793 28.8715 36.3375 28.7749 35.8668C28.666 35.3362 28.666 34.7815 28.666 33.672V31.8654C28.666 28.8784 28.666 27.3849 29.2473 26.2441C29.7586 25.2406 30.5745 24.4247 31.5781 23.9133C32.7189 23.332 34.2124 23.332 37.1993 23.332H62.7994C65.7863 23.332 67.2798 23.332 68.4206 23.9133C69.4242 24.4247 70.2401 25.2406 70.7514 26.2441C71.3327 27.3849 71.3327 28.8784 71.3327 31.8654V33.672C71.3327 34.7815 71.3327 35.3362 71.2238 35.8668C71.1272 36.3375 70.9674 36.793 70.7488 37.2209C70.5023 37.7033 70.1558 38.1364 69.4628 39.0028L58.3294 52.9195M31.3328 25.9987L49.9995 49.9987L68.6659 25.9987M59.4275 53.9039C64.6344 59.1109 64.6344 67.5531 59.4275 72.7601C54.2205 77.9671 45.7783 77.9671 40.5712 72.7601C35.3643 67.5531 35.3643 59.1109 40.5712 53.9039C45.7782 48.697 54.2204 48.697 59.4275 53.9039Z" stroke="white" stroke-width="5" stroke-linecap="round" stroke-linejoin="round"/>
<defs>
<radialGradient id="paint0_radial_2292_1162" cx="0" cy="0" r="1" gradientUnits="userSpaceOnUse" gradientTransform="translate(50 50) rotate(90) scale(71)">
<stop stop-color="#E2C473"/>
<stop offset="1" stop-color="white"/>
</radialGradient>
</defs>
</svg>
