<svg width="70" height="70" viewBox="0 0 70 70" fill="none" xmlns="http://www.w3.org/2000/svg">
<rect width="70" height="70" rx="12" fill="url(#paint0_radial_2292_1131)"/>
<path d="M25.2703 33.378L17.6608 19.761C16.7858 18.1953 16.3483 17.4124 16.4221 16.7715C16.4864 16.2122 16.7834 15.706 17.2402 15.377C17.7638 15 18.6606 15 20.4542 15H24.9239C25.5905 15 25.9237 15 26.2227 15.0963C26.4872 15.1815 26.7311 15.3208 26.9388 15.5055C27.1735 15.7142 27.3426 16.0014 27.681 16.5758L35.0002 29L42.3194 16.5758C42.6578 16.0014 42.8269 15.7142 43.0616 15.5055C43.2693 15.3208 43.5132 15.1815 43.7777 15.0963C44.0767 15 44.41 15 45.0766 15H49.5462C51.3398 15 52.2367 15 52.7602 15.377C53.217 15.706 53.514 16.2122 53.5784 16.7715C53.6521 17.4124 53.2146 18.1953 52.3396 19.761L44.7301 33.378M32.0002 39L35.0002 37V47M32.5002 47H37.5002M44.1926 32.8076C49.2694 37.8844 49.2694 46.1156 44.1926 51.1924C39.1158 56.2692 30.8846 56.2692 25.8078 51.1924C20.731 46.1156 20.731 37.8844 25.8078 32.8076C30.8846 27.7308 39.1158 27.7308 44.1926 32.8076Z" stroke="white" stroke-width="5" stroke-linecap="round" stroke-linejoin="round"/>
<defs>
<radialGradient id="paint0_radial_2292_1131" cx="0" cy="0" r="1" gradientUnits="userSpaceOnUse" gradientTransform="translate(35 35) rotate(90) scale(49.7)">
<stop stop-color="#A066AA"/>
<stop offset="1" stop-color="white"/>
</radialGradient>
</defs>
</svg>
