<svg width="34" height="34" viewBox="0 0 34 34" fill="none" xmlns="http://www.w3.org/2000/svg">
<path d="M13.4596 28.3337C6.2573 28.3337 1.41797 24.0638 1.41797 17.7087C1.41797 12.8098 4.38588 1.41699 31.8763 1.41699C32.1625 1.41699 32.4217 1.58983 32.5308 1.85474C32.6413 2.11966 32.5804 2.42424 32.3778 2.62683C29.893 5.11308 26.8627 8.76807 25.4857 15.0283C24.4615 19.6778 22.5561 28.3337 13.4596 28.3337ZM30.2046 2.84783C5.5433 3.28133 2.83464 13.3326 2.83464 17.7087C2.83464 23.2167 7.10447 26.917 13.4596 26.917C20.8036 26.917 22.8025 20.6227 24.1016 14.7237C25.3455 9.06416 27.8629 5.42474 30.2046 2.84783Z" fill="#E2C473"/>
<path d="M2.1263 32.5835C1.7353 32.5835 1.41797 32.2662 1.41797 31.8752C1.41797 27.6634 8.72088 14.1498 20.2341 8.57101C20.5855 8.40243 21.0091 8.54835 21.1805 8.89968C21.3505 9.25101 21.2031 9.6746 20.8518 9.84601C9.22522 15.4801 2.83464 28.5644 2.83464 31.8752C2.83464 32.2662 2.5173 32.5835 2.1263 32.5835Z" fill="#E2C473"/>
</svg>
