<svg width="600" height="600" viewBox="0 0 600 600" fill="none" xmlns="http://www.w3.org/2000/svg">
<rect width="600" height="600" fill="white" style="fill:white;fill-opacity:1;"/>
<path fill-rule="evenodd" clip-rule="evenodd" d="M221.875 487.5C221.875 465.922 204.391 448.438 182.812 448.438H135.938C114.359 448.438 96.875 465.922 96.875 487.5V510.938C96.875 515.25 100.375 518.75 104.688 518.75H214.062C218.375 518.75 221.875 515.25 221.875 510.938V487.5ZM503.125 487.5C503.125 465.922 485.641 448.438 464.062 448.438H417.188C395.609 448.438 378.125 465.922 378.125 487.5V510.938C378.125 515.25 381.625 518.75 385.938 518.75H495.312C499.625 518.75 503.125 515.25 503.125 510.938V487.5ZM362.5 487.5C362.5 465.922 345.016 448.438 323.438 448.438H276.562C254.984 448.438 237.5 465.922 237.5 487.5V510.938C237.5 515.25 241 518.75 245.312 518.75H354.688C359 518.75 362.5 515.25 362.5 510.938V487.5ZM206.25 487.5V503.125H112.5V487.5C112.5 474.562 123 464.062 135.938 464.062H182.812C195.75 464.062 206.25 474.562 206.25 487.5ZM487.5 487.5V503.125H393.75V487.5C393.75 474.562 404.25 464.062 417.188 464.062H464.062C477 464.062 487.5 474.562 487.5 487.5ZM346.875 487.5V503.125H253.125V487.5C253.125 474.562 263.625 464.062 276.562 464.062H323.438C336.375 464.062 346.875 474.562 346.875 487.5ZM198.438 402.312C200.781 390.609 197.75 378.484 190.188 369.266C182.625 360.031 171.328 354.688 159.406 354.688C159.391 354.688 159.359 354.688 159.344 354.688C147.422 354.688 136.125 360.031 128.562 369.266C121 378.484 117.969 390.609 120.312 402.312C121.75 409.562 123.219 416.844 124.484 423.172C127.422 437.859 140.313 448.438 155.313 448.438H163.437C178.437 448.438 191.328 437.859 194.266 423.172C195.531 416.844 197 409.562 198.438 402.312ZM479.688 402.312C482.031 390.609 479 378.484 471.438 369.266C463.875 360.031 452.578 354.688 440.656 354.688C440.641 354.688 440.609 354.688 440.594 354.688C428.672 354.688 417.375 360.031 409.812 369.266C402.25 378.484 399.219 390.609 401.562 402.312C403 409.562 404.469 416.844 405.734 423.172C408.672 437.859 421.563 448.438 436.563 448.438H444.687C459.687 448.438 472.578 437.859 475.516 423.172C476.781 416.844 478.25 409.562 479.688 402.312ZM339.062 402.312C341.406 390.609 338.375 378.484 330.812 369.266C323.25 360.031 311.953 354.688 300.031 354.688C300.016 354.688 299.984 354.688 299.969 354.688C288.047 354.688 276.75 360.031 269.188 369.266C261.625 378.484 258.594 390.609 260.938 402.312C262.375 409.562 263.844 416.844 265.109 423.172C268.047 437.859 280.938 448.438 295.938 448.438H304.062C319.062 448.438 331.953 437.859 334.891 423.172C336.156 416.844 337.625 409.562 339.062 402.312ZM464.375 399.25L460.203 420.094C458.719 427.484 452.234 432.812 444.703 432.812C444.688 432.812 436.563 432.812 436.563 432.812C429.016 432.812 422.531 427.484 421.047 420.094L416.875 399.25C415.453 392.141 417.297 384.766 421.891 379.172C426.484 373.563 433.344 370.312 440.594 370.312H440.656C447.906 370.312 454.766 373.563 459.359 379.172C463.953 384.766 465.797 392.141 464.375 399.25ZM183.125 399.25L178.953 420.094C177.469 427.484 170.984 432.812 163.453 432.812C163.438 432.812 155.313 432.812 155.313 432.812C147.766 432.812 141.281 427.484 139.797 420.094L135.625 399.25C134.203 392.141 136.047 384.766 140.641 379.172C145.234 373.563 152.094 370.312 159.344 370.312H159.406C166.656 370.312 173.516 373.563 178.109 379.172C182.703 384.766 184.547 392.141 183.125 399.25ZM323.75 399.25L319.578 420.094C318.094 427.484 311.609 432.812 304.078 432.812C304.063 432.812 295.938 432.812 295.938 432.812C288.391 432.812 281.906 427.484 280.422 420.094L276.25 399.25C274.828 392.141 276.672 384.766 281.266 379.172C285.859 373.563 292.719 370.312 299.969 370.312H300.031C307.281 370.312 314.141 373.563 318.734 379.172C323.328 384.766 325.172 392.141 323.75 399.25ZM260.844 280.453V307.609C260.844 313.219 263.328 318.5 267.906 322.703C273.391 327.75 282.172 331.25 292.156 331.25H307.844C317.828 331.25 326.609 327.75 332.094 322.703C336.672 318.5 339.156 313.219 339.156 307.609V280.453C353.875 268.625 363.344 250.297 363.344 229.688C363.344 193.984 334.906 165.078 300 165.078C265.094 165.078 236.656 193.984 236.656 229.688C236.656 250.297 246.125 268.625 260.844 280.453ZM150.734 273.063C150.734 273.063 148.594 268.75 143.656 268.75H135.938C129.719 268.75 123.766 266.281 119.359 261.891C114.969 257.484 112.5 251.531 112.5 245.312V120.312C112.5 107.375 123 96.875 135.938 96.875H464.062C477 96.875 487.5 107.375 487.5 120.312V245.312C487.5 251.531 485.031 257.484 480.641 261.891C476.234 266.281 470.281 268.75 464.062 268.75H456.344C452.031 268.75 448.562 274.484 449.266 273.063L431.844 307.906L408.062 272.234C406.609 270.062 404.172 268.75 401.562 268.75H378.125C373.812 268.75 370.312 272.25 370.312 276.562C370.312 280.875 373.812 284.375 378.125 284.375H397.375L426.312 327.766C427.859 330.094 430.516 331.406 433.297 331.234C436.078 331.063 438.563 329.422 439.797 326.937L461.078 284.375H464.062C474.422 284.375 484.359 280.266 491.688 272.937C499.016 265.609 503.125 255.672 503.125 245.312V120.312C503.125 98.7344 485.641 81.25 464.062 81.25C390.891 81.25 209.109 81.25 135.938 81.25C114.359 81.25 96.875 98.7344 96.875 120.312V245.312C96.875 255.672 100.984 265.609 108.312 272.937C115.641 280.266 125.578 284.375 135.938 284.375H138.922L160.203 326.937C161.437 329.422 163.922 331.063 166.703 331.234C169.484 331.406 172.141 330.094 173.688 327.766L202.625 284.375H221.875C226.188 284.375 229.688 280.875 229.688 276.562C229.688 272.25 226.188 268.75 221.875 268.75H198.438C195.828 268.75 193.391 270.062 191.937 272.234L168.156 307.906L150.734 273.063ZM323.531 289.672C316.25 292.656 308.312 294.297 300 294.297C291.688 294.297 283.75 292.656 276.469 289.672V307.609C276.469 309.547 278.016 311.047 279.906 312.313C283.031 314.422 287.391 315.625 292.156 315.625H307.844C312.609 315.625 316.969 314.422 320.094 312.313C321.984 311.047 323.531 309.547 323.531 307.609V289.672ZM300 180.703C326.391 180.703 347.719 202.703 347.719 229.688C347.719 256.672 326.391 278.672 300 278.672C273.609 278.672 252.281 256.672 252.281 229.688C252.281 202.703 273.609 180.703 300 180.703ZM374.703 194.562L398.359 181.547C402.141 179.469 403.516 174.719 401.438 170.937C399.359 167.156 394.609 165.781 390.828 167.859L367.188 180.859C363.406 182.938 362.016 187.703 364.094 191.469C366.172 195.25 370.938 196.641 374.703 194.562ZM232.812 180.859L209.172 167.859C205.391 165.781 200.641 167.156 198.562 170.937C196.484 174.719 197.859 179.469 201.641 181.547L225.297 194.562C229.062 196.641 233.828 195.25 235.906 191.469C237.984 187.703 236.594 182.938 232.812 180.859ZM265.344 152.422L251.094 128.172C248.906 124.453 244.109 123.219 240.391 125.406C236.672 127.594 235.437 132.375 237.625 136.094L251.875 160.344C254.062 164.047 258.859 165.297 262.578 163.109C266.297 160.922 267.531 156.125 265.344 152.422ZM348.125 160.344L362.375 136.094C364.563 132.375 363.328 127.594 359.609 125.406C355.891 123.219 351.094 124.453 348.906 128.172L334.656 152.422C332.469 156.125 333.703 160.922 337.422 163.109C341.141 165.297 345.938 164.047 348.125 160.344ZM307.812 143.969V120.312C307.812 116 304.312 112.5 300 112.5C295.688 112.5 292.188 116 292.188 120.312V143.969C292.188 148.266 295.688 151.781 300 151.781C304.312 151.781 307.812 148.266 307.812 143.969Z" fill="black" style="fill:black;fill-opacity:1;"/>
</svg>
